<svg width="274" height="279" viewBox="0 0 274 279" fill="none" xmlns="http://www.w3.org/2000/svg">
<path fill-rule="evenodd" clip-rule="evenodd" d="M0 17.5471C0 7.85615 7.94173 0 17.7395 0H48.6429C55.6158 0 62.3739 2.39032 67.7655 6.76408L77.1665 14.3897L77.4015 14.6018C77.6184 14.5294 77.8353 14.4587 78.053 14.3897C95.0134 9.01623 115.591 7.99432 136.593 7.99432C157.596 7.99432 178.173 9.01623 195.134 14.3897C195.351 14.4587 195.568 14.5294 195.785 14.6018L196.02 14.3897L205.421 6.76408C210.813 2.39032 217.571 0 224.544 0H255.447C265.245 0 273.187 7.85615 273.187 17.5471V28.3945C273.187 36.7872 269.613 44.7916 263.341 50.4441L255.757 57.2796C252.055 60.6165 247.611 63.0451 242.784 64.3691L240.99 64.8612C248.017 81.4473 251.9 99.1763 251.9 113.518C251.9 171.211 215.812 196.128 184.014 218.082C158.973 235.372 136.593 250.824 136.593 279C136.593 250.824 114.213 235.372 89.1725 218.082C57.3749 196.128 21.287 171.211 21.287 113.518C21.287 99.1763 25.1692 81.4473 32.1966 64.8612L30.4026 64.3691C25.5759 63.0451 21.1321 60.6165 17.4298 57.2796L9.84589 50.4441C3.57397 44.7916 0 36.7872 0 28.3945V17.5471ZM159.655 160.685C159.655 163.441 158.44 166.084 156.277 168.033C154.115 169.982 151.182 171.077 148.124 171.077C145.484 171.077 142.936 170.261 140.898 168.783C144.368 177.969 153.246 186.673 166.75 172.676C178.672 159.67 166.22 132.238 154.089 115.96C150.046 110.534 143.408 107.922 136.593 107.922C129.779 107.922 123.141 110.534 119.097 115.96C106.966 132.238 94.5146 159.67 106.436 172.676C119.941 186.673 128.819 177.969 132.288 168.783C130.25 170.261 127.703 171.077 125.063 171.077C122.004 171.077 119.072 169.982 116.909 168.033C114.747 166.084 113.532 163.441 113.532 160.685H159.655ZM92.4368 79.481H60.3142L85.6299 99.532C91.2008 103.944 99.3434 102.533 102.79 96.5593C107.143 89.0165 101.362 79.481 92.4368 79.481ZM180.75 79.481H212.873L187.557 99.532C181.986 103.944 173.843 102.533 170.396 96.5593C166.044 89.0165 171.825 79.481 180.75 79.481Z" fill="#8257E6"/>
</svg>
